<?xml version="1.0" encoding="UTF-8"?>
<!DOCTYPE svg PUBLIC "-//W3C//DTD SVG 1.1//EN" "http://www.w3.org/Graphics/SVG/1.1/DTD/svg11.dtd">
<!-- Creator: CorelDRAW 2020 (64-Bit) -->
<svg xmlns="http://www.w3.org/2000/svg" xml:space="preserve" width="210mm" height="297mm" version="1.1" style="shape-rendering:geometricPrecision; text-rendering:geometricPrecision; image-rendering:optimizeQuality; fill-rule:evenodd; clip-rule:evenodd"
viewBox="0 0 21000 29700"
 xmlns:xlink="http://www.w3.org/1999/xlink"
 xmlns:xodm="http://www.corel.com/coreldraw/odm/2003">
 <defs>
  <style type="text/css">
   <![CDATA[
    .fil0 {fill:black;fill-rule:nonzero}
    .fil1 {fill:#CCCCCC;fill-rule:nonzero}
   ]]>
  </style>
 </defs>
<symbol id="l" viewBox="-1869.27 2002.27 192.37 642.7">
 <path class="fil0" d="M-1792.1 2142.28l115.2 0 0 353.87c0,48.51 -11.58,85.44 -34.73,110.79 -23.15,25.35 -56.64,38.03 -100.32,38.03l-57.32 0 0 -75.52 19.84 0.01c22.05,0 37.07,-4.96 45.2,-14.88 7.99,-9.92 12.13,-29.49 12.13,-58.43l0 -353.87zm0 -140.01l115.2 0 0 93.7 -115.2 0 0 -93.7z"/>
</symbol>
<symbol id="m" viewBox="-1786.58 2022.68 395.22 480.11">
 <path class="fil0" d="M-1786.58 2022.68l205.6 0c60.91,0 107.76,13.64 140.56,40.79 32.66,26.87 49.06,65.46 49.06,115.75 0,50.44 -16.4,89.16 -49.06,116.31 -32.8,27.29 -79.65,40.79 -140.56,40.79l-82.13 0 0 166.47 -123.47 0 0 -480.11zm123.47 89.85l0 133.95 68.9 0c23.84,0 42.17,-5.79 55.12,-17.64 13.23,-11.71 19.84,-28.25 19.84,-49.61 0,-21.22 -6.61,-37.62 -19.84,-49.06 -12.95,-11.71 -31.28,-17.64 -55.12,-17.64l-68.9 0z"/>
</symbol>
<symbol id="c" viewBox="-1819.11 2134.02 396.33 378.14">
 <path class="fil0" d="M-1620.67 2216.15c-25.36,0 -44.92,9.23 -58.43,27.56 -13.23,18.47 -19.84,44.92 -19.84,79.37 0,34.59 6.61,61.05 19.84,79.37 13.5,18.47 33.07,27.56 58.43,27.56 25.36,0 44.65,-9.09 57.88,-27.56 13.23,-18.33 19.84,-44.79 19.84,-79.37 0,-34.45 -6.61,-60.91 -19.84,-79.37 -13.23,-18.33 -32.52,-27.56 -57.88,-27.56zm0 -82.13c62.01,0 110.52,16.81 145.52,50.16 34.86,33.49 52.37,79.79 52.37,138.91 0,59.26 -17.5,105.56 -52.37,138.91 -35,33.49 -83.51,50.16 -145.52,50.16 -62.15,0 -110.79,-16.67 -146.07,-50.16 -35,-33.35 -52.37,-79.65 -52.37,-138.91 0,-59.12 17.36,-105.42 52.37,-138.91 35.28,-33.35 83.92,-50.16 146.07,-50.16z"/>
</symbol>
<symbol id="q" viewBox="-1792.65 2134.02 579.88 368.77">
 <path class="fil0" d="M-1458.07 2202.37c14.61,-22.32 31.97,-39.27 51.82,-50.71 20.12,-11.71 42.17,-17.64 66.15,-17.64 41.48,0 73.04,12.95 94.81,38.59 21.64,25.36 32.52,62.29 32.52,110.79l0 219.39 -115.76 -0.01 0 -187.96 0 -8.27c0.28,-3.31 0.55,-7.72 0.55,-13.23 0,-25.36 -3.86,-43.68 -11.58,-55.12 -7.44,-11.71 -19.57,-17.64 -36.38,-17.64 -21.77,0 -38.59,9.09 -50.71,27.01 -11.85,18.05 -17.91,44.1 -18.19,78.27l0 176.94 -115.75 0 0 -187.96c0,-39.69 -3.58,-65.18 -10.47,-76.62 -6.61,-11.71 -18.74,-17.64 -36.38,-17.64 -22.05,0 -39.14,9.23 -51.26,27.56 -12.13,18.05 -18.19,43.82 -18.19,77.17l0 177.49 -115.76 0 0 -360.5 115.76 0 0 52.92c14.33,-20.12 30.59,-35.42 49.06,-45.75 18.33,-10.2 38.59,-15.43 60.64,-15.43 24.53,0 46.44,6.06 65.6,18.19 19.02,11.85 33.62,28.53 43.55,50.16l-0.03 0z"/>
</symbol>
<symbol id="n" viewBox="-1795.96 2142.28 362.15 369.86">
 <path class="fil0" d="M-1795.96 2362.77l0 -220.49 115.76 0 0 36.38c0,19.57 -0.28,43.96 -0.55,73.31l0 58.98c0,29.08 0.69,50.02 2.2,62.84 1.38,12.54 4,21.77 7.72,27.56 4.69,7.72 11.02,13.64 18.74,17.64 7.72,4.13 16.26,6.06 25.91,6.06 24.25,0 43.13,-9.09 56.78,-27.56 13.5,-18.74 20.39,-44.37 20.39,-77.17l0 -178.04 115.2 0 0 360.5 -115.2 0 0 -52.37c-17.36,21.36 -35.69,36.93 -55.12,46.85 -19.15,9.92 -40.51,14.88 -63.94,14.88 -41.62,0 -73.31,-12.68 -95.36,-38.03 -21.77,-25.63 -32.52,-62.84 -32.52,-111.34l-0.01 0z"/>
</symbol>
<symbol id="r" viewBox="-1834.54 2002.26 279.46 500.5">
 <path class="fil0" d="M-1555.08 2002.26l0 75.52 -63.39 -0.01c-16.26,0 -27.56,3.03 -34.18,8.82 -6.34,5.93 -9.37,16.26 -9.37,30.87l0 24.8 98.12 0.01 0 82.68 -98.11 0 0 277.81 -115.21 0 0 -277.81 -57.32 0 0 -82.68 57.32 0 0 -24.8c0,-39.27 10.75,-68.35 32.52,-87.09 22.05,-18.74 55.95,-28.11 101.97,-28.11l87.65 -0.01z"/>
</symbol>
<symbol id="e" viewBox="-1792.1 2134.02 362.15 368.76">
 <path class="fil0" d="M-1429.95 2283.39l0 219.39 -115.76 0 0 -168.12c0,-30.87 -0.83,-52.09 -2.2,-63.94 -1.1,-11.71 -3.58,-20.53 -7.17,-26.46 -4.41,-7.3 -10.47,-12.95 -18.19,-17.09 -7.72,-4.41 -16.54,-6.61 -26.46,-6.61 -23.98,0 -42.86,9.37 -56.78,28.11 -13.64,18.47 -20.39,43.96 -20.39,76.62l0 177.49 -115.2 0 0 -360.5 115.2 0 0 52.92c17.64,-20.95 36.1,-36.38 55.67,-46.3 19.43,-9.92 40.93,-14.88 64.49,-14.88 41.48,0 72.9,12.95 94.26,38.59 21.64,25.36 32.52,62.29 32.52,110.79l0.01 -0.01z"/>
</symbol>
<symbol id="f" viewBox="-1819.11 2133.99 318.05 378.14">
 <path class="fil0" d="M-1501.06 2153.86l0 93.7c-15.43,-10.61 -31.14,-18.47 -46.85,-23.7 -15.85,-5.1 -32.25,-7.72 -49.06,-7.72 -32.38,0 -57.6,9.37 -75.52,28.11 -17.64,18.74 -26.46,45.06 -26.46,78.82 0,33.49 8.82,59.81 26.46,78.82 17.91,18.74 43.13,28.11 75.52,28.11 17.91,0 35,-2.76 51.26,-8.27 16.12,-5.51 31.01,-13.37 44.65,-23.7l0 94.26c-18.05,6.61 -36.38,11.58 -55.12,14.88 -18.47,3.31 -36.79,4.96 -55.12,4.96 -65.05,0 -116.03,-16.67 -152.69,-50.16 -36.79,-33.35 -55.12,-79.65 -55.12,-138.91 0,-59.53 18.33,-105.83 55.12,-138.91 36.66,-33.35 87.64,-50.16 152.69,-50.16 18.74,0 37.21,1.65 55.67,4.96 18.33,3.31 36.52,8.27 54.57,14.88l0 0.03z"/>
</symbol>
<symbol id="o" viewBox="-1786.58 2022.68 429.94 480.1">
 <polygon class="fil0" points="-1786.58,2022.68 -1648.23,2022.68 -1474.05,2351.75 -1474.05,2022.68 -1356.64,2022.68 -1356.64,2502.78 -1494.44,2502.78 -1669.17,2173.15 -1669.17,2502.78 -1786.58,2502.78 "/>
</symbol>
<symbol id="p" viewBox="-1792.1 2002.26 362.15 500.52">
 <path class="fil0" d="M-1429.95 2283.39l0 219.39 -115.76 0 0 -167.02c0,-31.56 -0.83,-53.19 -2.2,-65.05 -1.1,-11.71 -3.58,-20.53 -7.17,-26.46 -4.41,-7.3 -10.47,-12.95 -18.19,-17.09 -7.72,-4.41 -16.54,-6.61 -26.46,-6.61 -23.98,0 -42.86,9.37 -56.78,28.11 -13.64,18.47 -20.39,43.96 -20.39,76.62l0 177.49 -115.2 0.01 0 -500.52 115.2 0 0 192.93c17.64,-20.95 36.1,-36.38 55.67,-46.3 19.43,-9.92 40.93,-14.88 64.49,-14.88 41.48,0 72.9,12.95 94.26,38.59 21.64,25.36 32.52,62.29 32.52,110.79l0.01 0z"/>
</symbol>
<symbol id="g" viewBox="-1792.1 2002.27 115.2 500.51">
 <path class="fil0" d="M-1792.1 2142.28l115.2 0 0 360.5 -115.2 0 0 -360.5zm0 -140.01l115.2 0 0 93.7 -115.2 0 0 -93.7z"/>
</symbol>
<symbol id="i" viewBox="-1792.1 2002.26 386.96 509.9">
 <path class="fil0" d="M-1600.28 2428.37c24.53,0 43.27,-8.96 56.23,-27.01 13.23,-17.91 19.84,-44.1 19.84,-78.27 0,-34.45 -6.61,-60.77 -19.84,-78.82 -12.95,-17.91 -31.69,-27.01 -56.23,-27.01 -24.67,0 -43.55,9.23 -56.78,27.56 -13.23,18.05 -19.84,44.1 -19.84,78.27 0,34.17 6.61,60.36 19.84,78.27 13.23,18.05 32.11,27.01 56.78,27.01zm-76.62 -233.17c15.71,-20.95 33.21,-36.38 52.37,-46.3 19.43,-9.92 41.89,-14.88 67.25,-14.88 44.37,0 80.75,17.64 109.14,52.92 28.66,35.28 43,80.75 43,136.15 0,55.53 -14.33,100.87 -43,136.15 -28.39,35.28 -64.77,52.92 -109.14,52.92 -25.36,0 -47.82,-4.96 -67.25,-14.88 -19.15,-9.92 -36.66,-25.49 -52.37,-46.85l0 52.37 -115.2 -0.02 0 -500.52 115.2 0 0 192.94z"/>
</symbol>
<symbol id="j" viewBox="-1817.46 2002.27 386.4 509.88">
 <path class="fil0" d="M-1546.81 2195.2l0 -192.93 115.75 0 0 500.52 -115.75 0 0 -52.37c-15.85,21.36 -33.35,36.93 -52.37,46.85 -19.15,9.92 -41.2,14.88 -66.15,14.88 -44.51,0 -81.03,-17.64 -109.69,-52.92 -28.39,-35.28 -42.44,-80.62 -42.44,-136.15 0,-55.4 14.06,-100.87 42.44,-136.15 28.66,-35.28 65.18,-52.92 109.69,-52.92 24.53,0 46.44,4.96 65.6,14.88 19.43,9.92 37.07,25.36 52.92,46.3l0 0.01zm-76.06 233.17c24.53,0 43.27,-8.96 56.23,-27.01 13.23,-17.91 19.84,-44.1 19.84,-78.27 0,-34.45 -6.61,-60.77 -19.84,-78.82 -12.95,-17.91 -31.69,-27.01 -56.23,-27.01 -24.25,0 -43,9.09 -56.23,27.01 -12.95,18.05 -19.29,44.37 -19.29,78.82 0,34.18 6.34,60.36 19.29,78.27 13.23,18.05 31.97,27.01 56.23,27.01z"/>
</symbol>
<symbol id="a" viewBox="-1819.11 2134.01 386.97 378.14">
 <path class="fil0" d="M-1432.14 2321.43l0 33.07 -269.55 0c2.89,27.29 12.68,47.68 29.21,61.19 16.81,13.23 40.38,19.84 70.56,19.84 24.25,0 49.06,-3.45 74.41,-10.47 25.36,-7.3 51.4,-18.33 78.27,-33.07l0 88.74c-27.29,10.34 -54.57,18.05 -82.13,23.15 -27.29,5.51 -54.43,8.27 -81.58,8.27 -65.05,0 -115.75,-16.54 -152.14,-49.61 -36.1,-33.07 -54.02,-79.51 -54.02,-139.46 0,-58.71 17.64,-104.87 52.92,-138.36 35.55,-33.76 84.61,-50.71 147.18,-50.71 56.5,0 101.7,17.09 135.6,51.26 34.18,33.9 51.26,79.24 51.26,136.15l0.01 0.01zm-118.51 -38.03c0,-21.64 -6.48,-39.14 -19.29,-52.37 -12.54,-13.5 -29.08,-20.39 -49.61,-20.39 -22.46,0 -40.65,6.34 -54.57,18.74 -14.06,12.54 -22.6,30.59 -25.91,54.02l149.38 0z"/>
</symbol>
<symbol id="b" viewBox="-1792.1 2134.01 267.89 368.77">
 <path class="fil0" d="M-1524.21 2240.4c-10.34,-4.41 -20.39,-7.72 -30.32,-9.92 -9.92,-2.48 -19.84,-3.86 -29.77,-3.86 -29.77,0 -52.78,9.65 -68.9,28.66 -15.85,19.15 -23.7,46.3 -23.7,81.58l0 165.91 -115.2 0.01 0 -360.5 115.2 0 0 59.53c15.02,-23.43 32.11,-40.51 51.26,-51.26 19.02,-11.02 42.03,-16.54 68.9,-16.54 3.58,0 7.72,0.28 12.13,0.55 4.69,0 11.3,0.55 19.84,1.65l0.56 104.19z"/>
</symbol>
<symbol id="s" viewBox="-1837.3 2142.28 409.55 360.5">
 <polygon class="fil0" points="-1837.3,2142.28 -1722.1,2142.28 -1632.25,2391.43 -1542.95,2142.28 -1427.75,2142.28 -1569.41,2502.78 -1695.64,2502.78 "/>
</symbol>
<symbol id="d" viewBox="-1838.4 2040.32 291.04 462.47">
 <path class="fil0" d="M-1665.87 2040.32l0 101.97 118.51 0.01 0 82.68 -118.51 0 0 152.69c0,16.95 3.31,28.39 9.92,34.18 6.61,5.93 19.57,8.82 39.14,8.82l59.53 -0.01 0 82.13 -98.67 0c-45.61,0 -78,-9.37 -97.01,-28.11 -18.74,-19.02 -28.11,-51.4 -28.11,-97.01l0 -152.69 -57.33 0 0 -82.68 57.32 0 0 -101.97 115.21 -0.01z"/>
</symbol>
<symbol id="k" viewBox="-1819.12 2134.02 364.37 378.13">
 <path class="fil0" d="M-1630.59 2340.72c-23.98,0 -41.89,4.13 -54.02,12.13 -12.13,8.13 -18.19,20.12 -18.19,35.83 0,14.75 4.69,26.32 14.33,34.73 9.92,8.13 23.43,12.13 40.79,12.13 21.64,0 39.83,-7.72 54.57,-23.15 15.02,-15.71 22.6,-35.28 22.6,-58.43l0 -13.23 -60.08 -0.01zm175.84 -43.55l0 205.6 -115.76 0.01 0 -53.47c-15.43,22.05 -32.93,38.03 -52.37,47.96 -19.15,9.92 -42.72,14.88 -70.56,14.88 -37.21,0 -67.53,-10.75 -90.95,-32.52 -23.15,-22.05 -34.73,-50.3 -34.73,-84.89 0,-42.17 14.47,-73.04 43.55,-92.6 28.94,-19.84 74.69,-29.77 137.25,-29.77l67.81 0 0 -9.37c0,-17.91 -7.17,-31.14 -21.5,-39.69 -14.33,-8.41 -36.79,-12.68 -67.25,-12.68 -24.67,0 -47.68,2.48 -68.9,7.17 -21.36,4.82 -41.07,12.13 -58.98,22.05l0 -87.64c24.53,-5.79 49.19,-10.2 73.86,-13.23 24.94,-3.31 49.89,-4.96 74.97,-4.96 64.63,0 111.34,12.95 140.01,38.59 28.94,25.36 43.55,66.97 43.55,124.57l0 -0.01z"/>
</symbol>
<symbol id="t" viewBox="-1814.14 2013.85 408.46 498.3">
 <path class="fil0" d="M-1405.68 2476.32c-22.88,11.85 -46.58,20.67 -71.11,26.46 -24.67,6.2 -50.44,9.37 -77.17,9.37 -80.2,0 -143.59,-22.19 -190.17,-66.7 -46.71,-44.79 -70.01,-105.56 -70.01,-182.45 0,-76.76 23.29,-137.39 70.01,-181.9 46.58,-44.79 109.97,-67.25 190.17,-67.25 26.73,0 52.5,3.17 77.17,9.37 24.53,5.93 48.23,14.75 71.11,26.46l0 99.22c-23.15,-15.43 -46.03,-26.73 -68.35,-34.18 -22.05,-7.3 -45.48,-11.02 -70.01,-11.02 -44.51,0 -79.37,14.19 -104.73,42.44 -25.08,28.39 -37.48,67.25 -37.48,116.86 0,49.61 12.4,88.61 37.48,116.86 25.36,28.39 60.22,42.44 104.73,42.44 24.53,0 47.96,-3.58 70.01,-11.02 22.32,-7.3 45.2,-18.74 68.35,-34.18l0 99.22z"/>
</symbol>
<symbol id="h" viewBox="-1838.95 2142.28 409 502.72">
 <path class="fil0" d="M-1838.95 2142.28l114.65 0 97.01 244.74 82.13 -244.74 115.21 0 -151.03 394.69c-15.43,39.96 -33.35,67.94 -53.47,83.78 -20.26,16.12 -47.13,24.25 -80.48,24.25l-66.14 0 0 -75.52 35.83 0.01c19.43,0 33.62,-3.17 42.44,-9.37 8.82,-6.34 15.71,-17.5 20.95,-33.62l3.31 -9.92 -160.41 -374.3z"/>
</symbol>
 <g id="Слой_x0020_1">
  <metadata id="CorelCorpID_0Corel-Layer"/>
  <g id="_1888729955072">
   <path class="fil1" d="M7826.3 8113.36c-39.55,0 -65.87,-13.23 -92.19,-39.55l-3437.5 -3437.4c-26.32,-26.32 -39.55,-52.64 -39.55,-92.19 0,-39.55 13.23,-65.87 39.55,-92.19l158.06 -158.06c500.52,-500.52 1303.9,-513.61 1791.16,-26.32l1870.15 1870.15c263.34,263.34 381.99,619.02 355.53,987.78 -39.55,381.99 -237.02,737.52 -566.38,961.46 -26.18,13.23 -52.5,26.32 -78.82,26.32l-0.01 0zm-3253.14 -3569.06l3253.14 3253.14c210.7,-184.38 342.44,-434.62 368.76,-697.97 26.32,-289.8 -78.96,-579.47 -276.57,-777.06l-1857.06 -1857.2c-381.99,-381.99 -1014.09,-368.76 -1422.4,26.32l-65.87 52.77z"/>
   <path class="fil1" d="M14042.95 20848.99c-935.14,0 -1870.15,-263.34 -2673.53,-803.38 -1857.06,-1224.81 -3450.59,-2502.39 -4741.33,-3793.07 -1290.67,-1290.67 -2581.35,-2884.38 -3806.12,-4741.33 -1277.58,-1949.38 -974.69,-4596.69 724.29,-6308.72l750.75 -750.75c52.64,-52.64 131.74,-52.64 184.38,0l3437.5 3437.5c26.32,26.32 39.55,65.87 39.55,92.19 0,39.55 -13.23,65.87 -39.55,92.19l-777.06 684.88c-250.25,250.25 -395.08,579.47 -395.08,935.14 0,355.53 118.51,671.65 368.76,921.91l5162.9 5162.9c500.52,500.52 1330.22,487.26 1857.06,-26.32l671.65 -763.83c26.32,-26.32 52.64,-39.55 92.19,-39.55 39.55,0 65.87,13.23 92.19,39.55l3437.5 3437.5c52.64,52.64 52.64,131.74 0,184.38l-750.75 750.75c-987.92,961.18 -2318,1488.02 -3635.02,1488.02l-0.28 0.04zm-9653.77 -16120.54l-658.57 658.57c-1606.8,1619.88 -1896.46,4135.61 -671.65,5979.23 1211.72,1830.74 2476.08,3411.04 3766.61,4701.82 1277.58,1277.58 2857.92,2541.94 4701.82,3766.61 1843.83,1224.81 4359.27,935.14 5979.23,-684.88l658.57 -658.57 -3239.91 -3239.91 -579.47 671.65c-619.02,619.02 -1620.03,645.34 -2225.82,39.55l-5202.41 -5162.9c-289.8,-289.8 -447.71,-684.88 -447.71,-1106.28 13.23,-421.39 171.15,-816.61 474.17,-1119.5l671.65 -592.7 -3226.51 -3252.69z"/>
   <path class="fil1" d="M18336.25 18623.31c-39.55,0 -65.87,-13.23 -92.19,-39.55l-3437.5 -3437.5c-39.55,-39.55 -52.64,-118.51 -13.23,-171.15 223.93,-329.21 579.47,-526.84 961.46,-566.38 368.76,-39.55 724.43,92.19 987.78,355.53l1870.15 1870.15c237.02,237.02 368.76,553.16 355.53,895.6 0,342.44 -144.83,658.57 -381.99,895.6l-158.06 158.06c-26.04,26.46 -65.6,39.69 -91.92,39.69l-0.03 -0.05zm-3266.23 -3582.46l3253.14 3253.14 65.87 -65.87c197.61,-197.61 302.89,-447.71 302.89,-724.43 0,-263.34 -92.19,-513.61 -276.57,-697.97l-1857.06 -1843.97c-197.61,-197.61 -487.26,-302.89 -777.06,-276.57 -276.57,26.32 -526.84,144.97 -711.2,355.67l-0.01 0z"/>
   <path class="fil1" d="M3756.65 11010.72c-39.55,0 -78.96,-26.32 -105.42,-52.64 -1040.41,-1567.25 -803.38,-3700.99 579.47,-5070.47 52.64,-52.64 131.74,-52.64 184.38,0 52.64,52.64 52.64,131.74 0,184.38 -1290.67,1290.67 -1514.62,3279.46 -540.07,4741.33 39.55,65.87 26.32,144.83 -39.55,184.38 -26.04,13.23 -52.37,13.23 -78.82,13.23l0.01 -0.21z"/>
  </g>
 </g>
</svg>
