<?xml version="1.0" encoding="UTF-8"?>
<!DOCTYPE svg PUBLIC "-//W3C//DTD SVG 1.1//EN" "http://www.w3.org/Graphics/SVG/1.1/DTD/svg11.dtd">
<!-- Creator: CorelDRAW 2020 (64-Bit) -->
<svg xmlns="http://www.w3.org/2000/svg" xml:space="preserve" width="210mm" height="297mm" version="1.1" style="shape-rendering:geometricPrecision; text-rendering:geometricPrecision; image-rendering:optimizeQuality; fill-rule:evenodd; clip-rule:evenodd"
viewBox="0 0 21000 29700"
 xmlns:xlink="http://www.w3.org/1999/xlink"
 xmlns:xodm="http://www.corel.com/coreldraw/odm/2003">
 <defs>
  <style type="text/css">
   <![CDATA[
    .fil0 {fill:#009D81}
   ]]>
  </style>
 </defs>
 <g id="Слой_x0020_1">
  <metadata id="CorelCorpID_0Corel-Layer"/>
  <path class="fil0" d="M17331.63 4055.36c361.55,312.26 285.27,550.24 -101.07,1320.3 -386.32,770 -3942.4,8023.23 -3942.4,8023.23l5610.33 0c0,0 342.08,-20.29 454.91,406.23 119.96,453.58 -454.91,914.05 -454.91,914.05l-12130.46 12136.42c0,0 -436.82,665.26 -960.35,304.72 -523.48,-360.59 -221.27,-891 50.57,-1421.85 271.82,-530.9 3891.84,-7972.47 3891.84,-7972.47l-5509.26 0c0,0 -378.12,-39.28 -454.88,-406.27 -76.78,-366.95 -65.54,-556.42 657.04,-1218.7 722.6,-662.27 11776.69,-11780.98 11776.69,-11780.98 0,0 557.78,-783.32 1111.95,-304.68z"/>
 </g>
</svg>
