<?xml version="1.0" encoding="UTF-8"?>
<!DOCTYPE svg PUBLIC "-//W3C//DTD SVG 1.1//EN" "http://www.w3.org/Graphics/SVG/1.1/DTD/svg11.dtd">
<!-- Creator: CorelDRAW 2020 (64-Bit) -->
<svg xmlns="http://www.w3.org/2000/svg" xml:space="preserve" width="939.384mm" height="202.602mm" version="1.1" style="shape-rendering:geometricPrecision; text-rendering:geometricPrecision; image-rendering:optimizeQuality; fill-rule:evenodd; clip-rule:evenodd"
viewBox="0 0 94536.1 20389.12"
 xmlns:xlink="http://www.w3.org/1999/xlink"
 xmlns:xodm="http://www.corel.com/coreldraw/odm/2003">
 <defs>
  <style type="text/css">
   <![CDATA[
    .str0 {stroke:#009D82;stroke-width:461.53;stroke-miterlimit:10}
    .fil1 {fill:none;fill-rule:nonzero}
    .fil2 {fill:#009D81}
    .fil0 {fill:#009D82;fill-rule:nonzero}
   ]]>
  </style>
 </defs>
 <g id="Слой_x0020_1">
  <metadata id="CorelCorpID_0Corel-Layer"/>
  <path class="fil0" d="M4193.38 3970.83c58.44,69.37 77.15,183.72 55.91,343.48l-1645.52 10416.36c-21.48,159.76 -74.63,274.32 -159.76,343.49 -85.38,69.37 -202.47,103.84 -351.47,103.84l-1485.77 0c-149.24,0 -253.13,-34.47 -311.53,-103.84 -58.65,-69.17 -77.36,-183.73 -55.91,-343.49l1645.52 -10416.36c21.23,-159.76 74.38,-274.11 159.76,-343.48 85.14,-69.16 202.19,-103.85 351.47,-103.85l1485.77 0c149.03,0 252.88,34.69 311.53,103.85z"/>
  <path class="fil1 str0" d="M4193.38 3970.83c58.44,69.37 77.15,183.72 55.91,343.48l-1645.52 10416.36c-21.48,159.76 -74.63,274.32 -159.76,343.49 -85.38,69.37 -202.47,103.84 -351.47,103.84l-1485.77 0c-149.24,0 -253.13,-34.47 -311.53,-103.84 -58.65,-69.17 -77.36,-183.73 -55.91,-343.49l1645.52 -10416.36c21.23,-159.76 74.38,-274.11 159.76,-343.48 85.14,-69.16 202.19,-103.85 351.47,-103.85l1485.77 0c149.03,0 252.88,34.69 311.53,103.85z"/>
  <path class="fil0" d="M9081.83 3930.88c69.16,42.68 125.07,117.34 167.74,223.66l3163.25 7061.4 63.9 0 1086.37 -6901.64c21.23,-159.76 74.38,-274.11 159.76,-343.48 85.14,-69.16 202.19,-103.85 351.47,-103.85l1453.82 0c149.03,0 252.88,34.69 311.53,103.85 58.44,69.37 77.15,183.72 55.91,343.48l-1661.51 10416.36c-10.72,159.76 -58.65,274.32 -143.78,343.49 -85.38,69.37 -202.44,103.84 -351.47,103.84l-1693.46 0c-149.25,0 -258.35,-21.22 -327.51,-63.9 -69.41,-42.42 -125.32,-117.08 -167.75,-223.66l-3163.25 -7061.4 -63.9 0 -1086.37 6901.64c-21.48,159.76 -74.62,274.32 -159.76,343.49 -85.34,69.37 -202.43,103.84 -351.47,103.84l-1453.81 0c-149.28,0 -253.13,-34.47 -311.53,-103.84 -58.65,-69.17 -77.4,-183.73 -55.92,-343.49l1645.53 -10416.36c21.22,-159.76 74.41,-274.11 159.76,-343.48 85.13,-69.16 202.22,-103.85 351.47,-103.85l1693.46 0c149.03,0 258.1,21.49 327.51,63.9z"/>
  <path class="fil1 str0" d="M9081.83 3930.88c69.16,42.68 125.07,117.34 167.74,223.66l3163.25 7061.4 63.9 0 1086.37 -6901.64c21.23,-159.76 74.38,-274.11 159.76,-343.48 85.14,-69.16 202.19,-103.85 351.47,-103.85l1453.82 0c149.03,0 252.88,34.69 311.53,103.85 58.44,69.37 77.15,183.72 55.91,343.48l-1661.51 10416.36c-10.72,159.76 -58.65,274.32 -143.78,343.49 -85.38,69.37 -202.44,103.84 -351.47,103.84l-1693.46 0c-149.25,0 -258.35,-21.22 -327.51,-63.9 -69.41,-42.42 -125.32,-117.08 -167.75,-223.66l-3163.25 -7061.4 -63.9 0 -1086.37 6901.64c-21.48,159.76 -74.62,274.32 -159.76,343.49 -85.34,69.37 -202.43,103.84 -351.47,103.84l-1453.81 0c-149.28,0 -253.13,-34.47 -311.53,-103.84 -58.65,-69.17 -77.4,-183.73 -55.92,-343.49l1645.53 -10416.36c21.22,-159.76 74.41,-274.11 159.76,-343.48 85.13,-69.16 202.22,-103.85 351.47,-103.85l1693.46 0c149.03,0 258.1,21.49 327.51,63.9z"/>
  <path class="fil0" d="M20736.08 13037.21c1107.6,0 1967.54,-279.58 2580.12,-838.73 612.34,-559.17 1019.74,-1451.09 1222.17,-2675.99 53.19,-308.79 79.89,-649.55 79.89,-1022.46 0,-851.98 -229.14,-1480.26 -686.97,-1885.17 -458.05,-404.65 -1155.78,-607.09 -2092.85,-607.09l-1565.65 0 -1118.32 7029.45 1581.62 0zm5160.26 -8123.8c777.36,697.68 1166.24,1754.84 1166.24,3171.23 0,479.28 -37.42,958.56 -111.83,1437.84 -298.3,1895.9 -980.05,3312.54 -2044.93,4249.62 -1065.14,937.37 -2476.29,1405.89 -4233.65,1405.89l-3786.31 0c-149.29,0 -253.13,-34.47 -311.54,-103.84 -58.65,-69.17 -77.39,-183.73 -55.91,-343.49l1645.53 -10416.36c21.22,-159.76 74.41,-274.11 159.76,-343.48 85.13,-69.16 202.22,-103.85 351.47,-103.85l3786.31 0c1512.22,0 2657.27,348.96 3434.85,1046.44z"/>
  <path class="fil1 str0" d="M20736.08 13037.21c1107.6,0 1967.54,-279.58 2580.12,-838.73 612.34,-559.17 1019.74,-1451.09 1222.17,-2675.99 53.19,-308.79 79.89,-649.55 79.89,-1022.46 0,-851.98 -229.14,-1480.26 -686.97,-1885.17 -458.05,-404.65 -1155.78,-607.09 -2092.85,-607.09l-1565.65 0 -1118.32 7029.45 1581.62 0zm5160.26 -8123.8c777.36,697.68 1166.24,1754.84 1166.24,3171.23 0,479.28 -37.42,958.56 -111.83,1437.84 -298.3,1895.9 -980.05,3312.54 -2044.93,4249.62 -1065.14,937.37 -2476.29,1405.89 -4233.65,1405.89l-3786.31 0c-149.29,0 -253.13,-34.47 -311.54,-103.84 -58.65,-69.17 -77.39,-183.73 -55.91,-343.49l1645.53 -10416.36c21.22,-159.76 74.41,-274.11 159.76,-343.48 85.13,-69.16 202.22,-103.85 351.47,-103.85l3786.31 0c1512.22,0 2657.27,348.96 3434.85,1046.44z"/>
  <path class="fil0" d="M50619.05 3866.99c569.67,149.25 987.78,319.52 1254.12,511.19 106.32,74.66 159.76,170.52 159.76,287.61 0,85.35 -26.7,170.48 -79.89,255.58l-750.87 1166.28c-95.83,159.76 -218.45,239.65 -367.45,239.65 -85.35,0 -170.52,-21.23 -255.62,-63.9 -575.14,-287.61 -1240.88,-431.36 -1997,-431.36 -1097.1,0 -1957.06,303.51 -2580.13,910.64 -623.06,607.09 -1035.92,1533.66 -1238.14,2779.83 -63.9,383.42 -95.86,734.9 -95.86,1054.42 0,884.15 228.92,1544.42 687,1981.03 457.76,436.82 1150.24,655.01 2076.88,655.01 756.06,0 1474.98,-143.82 2156.77,-431.35 85.1,-42.46 175.7,-63.9 271.56,-63.9 138.31,0 239.64,79.88 303.54,239.64l351.47 1166.21c21.23,85.42 31.99,138.57 31.99,159.76 0,159.76 -90.64,287.61 -271.63,383.42 -330.28,202.47 -806.76,375.44 -1429.86,519.22 -623.06,143.82 -1254.08,215.67 -1893.12,215.67 -1544.46,0 -2721.46,-364.68 -3530.73,-1094.35 -809.52,-729.39 -1214.18,-1823.75 -1214.18,-3283.04 0,-425.88 42.46,-926.61 127.81,-1501.75 319.52,-1959.58 1030.46,-3429.37 2132.8,-4409.38 1102.35,-979.8 2548.18,-1469.83 4337.5,-1469.83 639.04,0 1243.39,74.66 1813.28,223.7z"/>
  <path class="fil1 str0" d="M50619.05 3866.99c569.67,149.25 987.78,319.52 1254.12,511.19 106.32,74.66 159.76,170.52 159.76,287.61 0,85.35 -26.7,170.48 -79.89,255.58l-750.87 1166.28c-95.83,159.76 -218.45,239.65 -367.45,239.65 -85.35,0 -170.52,-21.23 -255.62,-63.9 -575.14,-287.61 -1240.88,-431.36 -1997,-431.36 -1097.1,0 -1957.06,303.51 -2580.13,910.64 -623.06,607.09 -1035.92,1533.66 -1238.14,2779.83 -63.9,383.42 -95.86,734.9 -95.86,1054.42 0,884.15 228.92,1544.42 687,1981.03 457.76,436.82 1150.24,655.01 2076.88,655.01 756.06,0 1474.98,-143.82 2156.77,-431.35 85.1,-42.46 175.7,-63.9 271.56,-63.9 138.31,0 239.64,79.88 303.54,239.64l351.47 1166.21c21.23,85.42 31.99,138.57 31.99,159.76 0,159.76 -90.64,287.61 -271.63,383.42 -330.28,202.47 -806.76,375.44 -1429.86,519.22 -623.06,143.82 -1254.08,215.67 -1893.12,215.67 -1544.46,0 -2721.46,-364.68 -3530.73,-1094.35 -809.52,-729.39 -1214.18,-1823.75 -1214.18,-3283.04 0,-425.88 42.46,-926.61 127.81,-1501.75 319.52,-1959.58 1030.46,-3429.37 2132.8,-4409.38 1102.35,-979.8 2548.18,-1469.83 4337.5,-1469.83 639.04,0 1243.39,74.66 1813.28,223.7z"/>
  <path class="fil0" d="M58263.3 5959.82l-2332.5 4808.78 3211.17 0 -814.77 -4808.78 -63.9 0zm3850.21 9066.39c-74.62,101.36 -186.49,151.77 -335.49,151.77l-1565.65 0c-159.76,0 -271.6,-29.18 -335.5,-87.84 -63.9,-58.43 -106.61,-157.02 -127.81,-295.55l-383.42 -2028.99 -4297.54 0 -1006.49 2028.99c-63.9,138.53 -138.53,237.12 -223.66,295.55 -85.38,58.65 -207.68,87.84 -367.44,87.84l-1597.6 0c-212.95,0 -319.52,-95.86 -319.52,-287.53 0,-74.42 15.97,-149.04 47.92,-223.7l5256.11 -10416.32c63.9,-138.32 141.05,-236.91 231.65,-295.6 90.38,-58.4 215.67,-87.83 375.43,-87.83l2300.55 0c159.76,0 276.85,29.43 351.47,87.83 74.38,58.69 122.34,157.27 143.78,295.6l1933.1 10416.32c21.23,138.54 -5.5,258.35 -79.89,359.46z"/>
  <path class="fil1 str0" d="M58263.3 5959.82l-2332.5 4808.78 3211.17 0 -814.77 -4808.78 -63.9 0zm3850.21 9066.39c-74.62,101.36 -186.49,151.77 -335.49,151.77l-1565.65 0c-159.76,0 -271.6,-29.18 -335.5,-87.84 -63.9,-58.43 -106.61,-157.02 -127.81,-295.55l-383.42 -2028.99 -4297.54 0 -1006.49 2028.99c-63.9,138.53 -138.53,237.12 -223.66,295.55 -85.38,58.65 -207.68,87.84 -367.44,87.84l-1597.6 0c-212.95,0 -319.52,-95.86 -319.52,-287.53 0,-74.42 15.97,-149.04 47.92,-223.7l5256.11 -10416.32c63.9,-138.32 141.05,-236.91 231.65,-295.6 90.38,-58.4 215.67,-87.83 375.43,-87.83l2300.55 0c159.76,0 276.85,29.43 351.47,87.83 74.38,58.69 122.34,157.27 143.78,295.6l1933.1 10416.32c21.23,138.54 -5.5,258.35 -79.89,359.46z"/>
  <path class="fil0" d="M72114.59 3970.83c53.18,69.37 69.12,178.47 47.92,327.51l-191.71 1278.08c-21.44,149.28 -71.88,258.34 -151.77,327.51 -79.88,69.37 -194.48,103.84 -343.48,103.84l-2827.76 0 -1389.91 8722.9c-10.76,159.76 -58.65,274.32 -143.79,343.49 -85.38,69.37 -202.47,103.84 -351.47,103.84l-1485.76 0c-159.76,0 -266.37,-34.47 -319.52,-103.84 -53.4,-69.17 -69.41,-183.73 -47.93,-343.49l1373.94 -8722.9 -2811.78 0c-149.24,0 -253.13,-34.47 -311.53,-103.84 -58.65,-69.17 -77.36,-178.23 -55.91,-327.51l207.68 -1278.08c31.95,-287.57 196.97,-431.36 495.26,-431.36l8003.98 0c149,0 250.12,34.69 303.55,103.85z"/>
  <path class="fil1 str0" d="M72114.59 3970.83c53.18,69.37 69.12,178.47 47.92,327.51l-191.71 1278.08c-21.44,149.28 -71.88,258.34 -151.77,327.51 -79.88,69.37 -194.48,103.84 -343.48,103.84l-2827.76 0 -1389.91 8722.9c-10.76,159.76 -58.65,274.32 -143.79,343.49 -85.38,69.37 -202.47,103.84 -351.47,103.84l-1485.76 0c-159.76,0 -266.37,-34.47 -319.52,-103.84 -53.4,-69.17 -69.41,-183.73 -47.93,-343.49l1373.94 -8722.9 -2811.78 0c-149.24,0 -253.13,-34.47 -311.53,-103.84 -58.65,-69.17 -77.36,-178.23 -55.91,-327.51l207.68 -1278.08c31.95,-287.57 196.97,-431.36 495.26,-431.36l8003.98 0c149,0 250.12,34.69 303.55,103.85z"/>
  <path class="fil0" d="M79431.7 12326.27c585.64,-612.3 979.79,-1546.9 1182.26,-2803.79 63.9,-415.38 95.83,-798.8 95.83,-1150.27 0,-1714.69 -825.5,-2572.14 -2476.29,-2572.14 -1981.03,0 -3168.72,1240.92 -3562.65,3722.42 -63.87,415.41 -95.86,793.58 -95.86,1134.33 0,1725.37 830.78,2588.07 2492.26,2588.07 990.54,0 1778.59,-306.02 2364.45,-918.62zm2572.13 -7588.6c788.08,729.67 1182.23,1818.74 1182.23,3267.09 0,436.86 -42.67,942.59 -127.81,1517.73 -309.04,1949.07 -1006.45,3416.38 -2092.85,4401.39 -1086.34,985.3 -2502.99,1477.78 -4249.62,1477.78 -1491.24,0 -2630.79,-364.68 -3418.87,-1094.36 -788.29,-729.39 -1182.23,-1818.53 -1182.23,-3267.1 0,-436.57 42.46,-942.55 127.81,-1517.72 308.79,-1949.07 1006.52,-3416.1 2092.85,-4401.39 1086.41,-985.02 2502.73,-1477.78 4249.62,-1477.78 1491.03,0 2630.57,364.96 3418.87,1094.36z"/>
  <path class="fil1 str0" d="M79431.7 12326.27c585.64,-612.3 979.79,-1546.9 1182.26,-2803.79 63.9,-415.38 95.83,-798.8 95.83,-1150.27 0,-1714.69 -825.5,-2572.14 -2476.29,-2572.14 -1981.03,0 -3168.72,1240.92 -3562.65,3722.42 -63.87,415.41 -95.86,793.58 -95.86,1134.33 0,1725.37 830.78,2588.07 2492.26,2588.07 990.54,0 1778.59,-306.02 2364.45,-918.62zm2572.13 -7588.6c788.08,729.67 1182.23,1818.74 1182.23,3267.09 0,436.86 -42.67,942.59 -127.81,1517.73 -309.04,1949.07 -1006.45,3416.38 -2092.85,4401.39 -1086.34,985.3 -2502.99,1477.78 -4249.62,1477.78 -1491.24,0 -2630.79,-364.68 -3418.87,-1094.36 -788.29,-729.39 -1182.23,-1818.53 -1182.23,-3267.1 0,-436.57 42.46,-942.55 127.81,-1517.72 308.79,-1949.07 1006.52,-3416.1 2092.85,-4401.39 1086.41,-985.02 2502.73,-1477.78 4249.62,-1477.78 1491.03,0 2630.57,364.96 3418.87,1094.36z"/>
  <path class="fil0" d="M91860.99 7269.87c0,-489.76 -167.75,-833.27 -503.25,-1030.46 -335.49,-196.93 -892.17,-295.55 -1669.49,-295.55l-1773.34 0 -575.14 3594.6 1773.34 0c883.93,0 1530.96,-133.06 1941.08,-399.4 409.87,-266.13 668.26,-729.43 774.84,-1389.92 21.19,-117.09 31.95,-276.85 31.95,-479.28zm1397.9 2763.86c-495.26,575.14 -1174.23,980.04 -2036.94,1214.18l1981.03 3338.98c31.95,63.9 47.92,127.81 47.92,191.71 0,106.57 -34.68,199.7 -103.85,279.58 -69.37,79.89 -162.53,119.83 -279.58,119.83l-1629.55 0c-149.28,0 -271.59,-31.95 -367.44,-95.86 -95.86,-63.9 -181.25,-159.76 -255.62,-287.57l-1869.2 -3307.04 -1709.43 0 -511.23 3243.14c-21.45,159.76 -74.63,274.32 -159.76,343.48 -85.39,69.37 -202.44,103.85 -351.47,103.85l-1485.77 0c-149.28,0 -253.13,-34.48 -311.53,-103.85 -58.68,-69.16 -77.4,-183.72 -55.91,-343.48l1645.52 -10416.36c21.23,-159.76 74.38,-274.11 159.76,-343.49 85.14,-69.16 202.22,-103.84 351.47,-103.84l4009.98 0c1341.99,0 2340.48,231.64 2995.5,694.95 655.01,463.3 982.52,1195.68 982.52,2196.7 0,255.62 -26.7,569.88 -79.88,942.59 -149.25,980.04 -471.3,1757.36 -966.55,2332.5z"/>
  <path class="fil1 str0" d="M91860.99 7269.87c0,-489.76 -167.75,-833.27 -503.25,-1030.46 -335.49,-196.93 -892.17,-295.55 -1669.49,-295.55l-1773.34 0 -575.14 3594.6 1773.34 0c883.93,0 1530.96,-133.06 1941.08,-399.4 409.87,-266.13 668.26,-729.43 774.84,-1389.92 21.19,-117.09 31.95,-276.85 31.95,-479.28zm1397.9 2763.86c-495.26,575.14 -1174.23,980.04 -2036.94,1214.18l1981.03 3338.98c31.95,63.9 47.92,127.81 47.92,191.71 0,106.57 -34.68,199.7 -103.85,279.58 -69.37,79.89 -162.53,119.83 -279.58,119.83l-1629.55 0c-149.28,0 -271.59,-31.95 -367.44,-95.86 -95.86,-63.9 -181.25,-159.76 -255.62,-287.57l-1869.2 -3307.04 -1709.43 0 -511.23 3243.14c-21.45,159.76 -74.63,274.32 -159.76,343.48 -85.39,69.37 -202.44,103.85 -351.47,103.85l-1485.77 0c-149.28,0 -253.13,-34.48 -311.53,-103.85 -58.68,-69.16 -77.4,-183.72 -55.91,-343.48l1645.52 -10416.36c21.23,-159.76 74.38,-274.11 159.76,-343.49 85.14,-69.16 202.22,-103.84 351.47,-103.84l4009.98 0c1341.99,0 2340.48,231.64 2995.5,694.95 655.01,463.3 982.52,1195.68 982.52,2196.7 0,255.62 -26.7,569.88 -79.88,942.59 -149.25,980.04 -471.3,1757.36 -966.55,2332.5z"/>
  <path class="fil2" d="M39615.7 135.17c315.47,272.48 248.9,480.1 -88.19,1152.05 -337.09,671.88 -3439.99,7000.75 -3439.99,7000.75l4895.37 0c0,0 298.47,-17.71 396.91,354.46 104.7,395.77 -396.91,797.55 -396.91,797.55l-10584.61 10589.79c0,0 -381.12,580.46 -837.93,265.88 -456.77,-314.66 -193.1,-777.47 44.1,-1240.66 237.19,-463.23 3395.89,-6956.45 3395.89,-6956.45l-4807.19 0c0,0 -329.92,-34.3 -396.91,-354.49 -66.99,-320.19 -57.19,-485.53 573.33,-1063.39 630.52,-577.87 10275.87,-10279.65 10275.87,-10279.65 0,0 486.71,-683.48 970.24,-265.84z"/>
 </g>
</svg>
