<?xml version="1.0" encoding="UTF-8"?>
<!DOCTYPE svg PUBLIC "-//W3C//DTD SVG 1.1//EN" "http://www.w3.org/Graphics/SVG/1.1/DTD/svg11.dtd">
<!-- Creator: CorelDRAW 2020 (64-Bit) -->
<svg xmlns="http://www.w3.org/2000/svg" xml:space="preserve" width="210mm" height="297mm" version="1.1" style="shape-rendering:geometricPrecision; text-rendering:geometricPrecision; image-rendering:optimizeQuality; fill-rule:evenodd; clip-rule:evenodd"
viewBox="0 0 21000 29700"
 xmlns:xlink="http://www.w3.org/1999/xlink"
 xmlns:xodm="http://www.corel.com/coreldraw/odm/2003">
 <defs>
  <style type="text/css">
   <![CDATA[
    .str0 {stroke:#2B2A29;stroke-width:20;stroke-miterlimit:22.9256}
    .fil1 {fill:#7688A1}
    .fil2 {fill:#CCCCCC}
    .fil3 {fill:#CCCCCC}
    .fil0 {fill:black;fill-rule:nonzero}
   ]]>
  </style>
 </defs>
 <g id="Слой_x0020_1">
  <metadata id="CorelCorpID_0Corel-Layer"/>
  <g id="_1888579115312">
   <path class="fil0" d="M8404.15 16207.49c1558.96,0 2974.9,-609.92 4033.31,-1598.51l5729.11 5729.11c40.38,40.38 93.02,60.08 145.66,60.08 52.64,0 105.42,-19.71 145.66,-60.08 80.62,-80.62 80.62,-210.7 0,-291.45l-5729.11 -5729.11c987.78,-1058.62 1597.69,-2474.42 1597.69,-4033.31 0,-3265.38 -2657.12,-5922.43 -5922.43,-5922.43 -3265.28,0 -5922.43,2657.97 -5922.43,5923.49 0,3265.52 2657.12,5922.43 5922.43,5922.43l0.11 -0.22zm0 -11433.53c3038.3,0 5510.74,2471.91 5510.74,5510.74 0,1507.98 -609.92,2875.28 -1594.38,3871.38 -9.92,6.61 -23.01,4.13 -32.11,13.23 -9.1,9.1 -6.61,22.19 -13.23,32.11 -996.03,984.46 -2363.19,1594.38 -3871.38,1594.38 -3039.11,0 -5510.74,-2471.91 -5510.74,-5510.74 0,-3039.11 2471.91,-5511.09 5511.09,-5511.09l0.01 -0.01z"/>
   <path class="fil0" d="M8404.15 6371.69c113.55,0 205.74,-92.19 205.74,-205.74 0,-113.69 -92.19,-205.88 -205.74,-205.88 -2384.71,0 -4324.7,1940.14 -4324.7,4324.7 0,113.55 92.19,205.74 205.74,205.74 113.69,0 205.88,-92.19 205.88,-205.74 0,-2157.45 1755.77,-3913.36 3913.36,-3913.36l-0.28 0.28z"/>
  </g>
  <path class="fil1 str0" d="M2893.05 10285.06c0,-3039.11 2471.91,-5511.09 5511.1,-5511.1 3038.3,0 5510.74,2471.91 5510.74,5510.74 0,1507.98 -609.92,2875.28 -1594.38,3871.38 -9.92,6.61 -23.01,4.13 -32.11,13.23 -9.1,9.1 -6.61,22.19 -13.23,32.11 -996.03,984.46 -2363.19,1594.38 -3871.38,1594.38 -3039.11,0 -5510.74,-2471.91 -5510.74,-5510.74zm5511.1 5922.43c1558.96,0 2974.9,-609.92 4033.31,-1598.51l5729.11 5729.12c40.38,40.37 93.02,60.07 145.66,60.07 52.64,0 105.42,-19.71 145.66,-60.08 80.62,-80.62 80.62,-210.7 0,-291.45l-5729.11 -5729.11c987.78,-1058.62 1597.69,-2474.42 1597.69,-4033.31 0,-3265.38 -2657.12,-5922.43 -5922.43,-5922.43 -3265.28,0 -5922.43,2657.97 -5922.43,5923.49 0,3265.52 2657.12,5922.43 5922.43,5922.43l0.11 -0.22z"/>
  <path class="fil2 str0" d="M8404.15 5960.07c-2384.71,0 -4324.7,1940.14 -4324.7,4324.7 0,113.55 92.19,205.74 205.74,205.74 113.69,0 205.88,-92.19 205.88,-205.74 0,-2157.45 1755.77,-3913.36 3913.36,-3913.36l-0.28 0.28c113.55,0 205.74,-92.19 205.75,-205.74 -0.01,-113.68 -92.2,-205.88 -205.75,-205.88z"/>
  <path class="fil1 str0" d="M2893.05 10285.06c0,-3039.11 2471.91,-5511.09 5511.1,-5511.1 3038.3,0 5510.74,2471.91 5510.74,5510.74 0,1507.98 -609.92,2875.28 -1594.38,3871.38 -9.92,6.61 -23.01,4.13 -32.11,13.23 -9.1,9.1 -6.61,22.19 -13.23,32.11 -996.03,984.46 -2363.19,1594.38 -3871.38,1594.38 -3039.11,0 -5510.74,-2471.91 -5510.74,-5510.74zm5511.1 5922.43c1558.96,0 2974.9,-609.92 4033.31,-1598.51l5729.11 5729.12c40.38,40.37 93.02,60.07 145.66,60.07 52.64,0 105.42,-19.71 145.66,-60.08 80.62,-80.62 80.62,-210.7 0,-291.45l-5729.11 -5729.11c987.78,-1058.62 1597.69,-2474.42 1597.69,-4033.31 0,-3265.38 -2657.12,-5922.43 -5922.43,-5922.43 -3265.28,0 -5922.43,2657.97 -5922.43,5923.49 0,3265.52 2657.12,5922.43 5922.43,5922.43l0.11 -0.22z"/>
  <path class="fil3 str0" d="M2893.05 10285.06c0,-3039.11 2471.91,-5511.09 5511.1,-5511.1 3038.3,0 5510.74,2471.91 5510.74,5510.74 0,1507.98 -609.92,2875.28 -1594.38,3871.38 -9.92,6.61 -23.01,4.13 -32.11,13.23 -9.1,9.1 -6.61,22.19 -13.23,32.11 -996.03,984.46 -2363.19,1594.38 -3871.38,1594.38 -3039.11,0 -5510.74,-2471.91 -5510.74,-5510.74zm5511.1 5922.43c1558.96,0 2974.9,-609.92 4033.31,-1598.51l5729.11 5729.12c40.38,40.37 93.02,60.07 145.66,60.07 52.64,0 105.42,-19.71 145.66,-60.08 80.62,-80.62 80.62,-210.7 0,-291.45l-5729.11 -5729.11c987.78,-1058.62 1597.69,-2474.42 1597.69,-4033.31 0,-3265.38 -2657.12,-5922.43 -5922.43,-5922.43 -3265.28,0 -5922.43,2657.97 -5922.43,5923.49 0,3265.52 2657.12,5922.43 5922.43,5922.43l0.11 -0.22z"/>
 </g>
</svg>
