<?xml version="1.0" encoding="UTF-8"?>
<!DOCTYPE svg PUBLIC "-//W3C//DTD SVG 1.1//EN" "http://www.w3.org/Graphics/SVG/1.1/DTD/svg11.dtd">
<!-- Creator: CorelDRAW 2020 (64-Bit) -->
<svg xmlns="http://www.w3.org/2000/svg" xml:space="preserve" width="210mm" height="297mm" version="1.1" style="shape-rendering:geometricPrecision; text-rendering:geometricPrecision; image-rendering:optimizeQuality; fill-rule:evenodd; clip-rule:evenodd"
viewBox="0 0 21000 29700"
 xmlns:xlink="http://www.w3.org/1999/xlink"
 xmlns:xodm="http://www.corel.com/coreldraw/odm/2003">
 <defs>
  <style type="text/css">
   <![CDATA[
    .fil0 {fill:black;fill-rule:nonzero}
    .fil1 {fill:#CCCCCC;fill-rule:nonzero}
   ]]>
  </style>
 </defs>
<symbol id="e" viewBox="-1744.71 975.38 1276.07 1556.61">
 <path class="fil0" d="M-468.64 2420.65c-70.97,36.79 -144.97,64.49 -222.14,83.23 -77.17,18.74 -157.51,28.11 -240.88,28.11 -249.97,0 -447.99,-69.73 -594.22,-209.46 -145.93,-139.59 -218.83,-329.07 -218.83,-568.29 0,-239.5 72.9,-429.12 218.83,-568.85 146.21,-140.01 344.23,-210.01 594.22,-210.01 83.37,0 163.71,9.37 240.88,28.11 77.17,18.74 151.17,46.71 222.14,83.78l0 310.34c-71.66,-48.78 -142.49,-84.61 -212.22,-107.49 -69.45,-22.74 -142.77,-34.18 -219.94,-34.18 -137.8,0 -246.39,44.37 -325.77,132.84 -79.1,88.19 -118.51,210.01 -118.51,365.44 0,154.75 39.41,276.43 118.51,364.91 79.37,88.19 187.96,132.29 325.77,132.29 77.17,0 150.48,-11.3 219.94,-34.18 69.73,-22.74 140.56,-58.57 212.22,-107.49l0 310.9z"/>
</symbol>
<symbol id="d" viewBox="-1754.6 939.55 1207.72 1592.44">
 <path class="fil0" d="M-909.04 1542.03l0 -602.47 362.16 -0.01 0 1563.23 -362.16 0 0 -162.61c-49.33,66.15 -103.9,114.65 -163.71,145.52 -59.53,30.87 -128.43,46.3 -206.71,46.3 -138.63,0 -252.45,-55.12 -341.75,-165.36 -89.02,-110.24 -133.39,-252.04 -133.39,-425.52 0,-173.36 44.37,-315.3 133.39,-425.52 89.3,-110.24 203.12,-165.36 341.75,-165.36 77.45,0 146.21,15.71 206.16,46.85 60.22,31.28 114.93,79.65 164.26,144.97l0 -0.02zm-237.03 728.69c77.17,0 135.88,-28.11 176.39,-84.34 40.38,-56.23 60.64,-137.94 60.64,-245.29 0,-107.21 -20.26,-189.07 -60.64,-245.29 -40.51,-56.23 -99.22,-84.34 -176.39,-84.34 -76.48,0 -134.91,28.11 -175.29,84.34 -40.51,56.23 -60.64,138.08 -60.64,245.29 0,107.35 20.12,189.07 60.64,245.29 40.38,56.23 98.81,84.34 175.29,84.34z"/>
</symbol>
<symbol id="a" viewBox="-1820.22 1058.05 909.52 1444.73">
 <path class="fil0" d="M-1281.68 1058.05l0 319.7 370.98 0 0 256.86 -370.98 0.01 0 477.34c0,52.23 10.2,87.51 30.87,105.83 20.95,18.47 62.29,27.56 124.02,27.56l184.66 0.01 0 257.42 -308.13 -0.01c-142.21,0 -242.95,-29.49 -302.07,-88.74 -59.26,-59.53 -88.74,-160.13 -88.74,-302.07l0 -477.34 -179.15 0 0 -256.86 179.15 0 0 -319.7 359.39 -0.01z"/>
</symbol>
<symbol id="c" viewBox="-1674.15 939.53 1207.17 1592.43">
 <path class="fil0" d="M-1075.52 2270.72c76.76,0 135.32,-28.11 175.84,-84.34 40.79,-56.23 61.19,-137.94 61.19,-245.29 0,-107.21 -20.39,-189.07 -61.19,-245.29 -40.51,-56.23 -99.08,-84.34 -175.84,-84.34 -77.17,0 -136.43,28.39 -177.49,84.89 -41.2,56.64 -61.74,138.22 -61.74,244.74 0,106.66 20.53,188.24 61.74,244.74 41.07,56.64 100.32,84.89 177.49,84.89zm-239.22 -728.7c49.61,-65.32 104.45,-113.69 164.81,-144.97 60.22,-31.14 129.54,-46.85 207.81,-46.85 138.91,0 252.73,55.12 341.75,165.36 88.88,110.24 133.39,252.18 133.39,425.52 0,173.5 -44.51,315.3 -133.39,425.52 -89.02,110.24 -202.85,165.36 -341.75,165.36 -78.27,0 -147.59,-15.71 -207.81,-46.85 -60.36,-31.14 -115.2,-79.51 -164.81,-144.97l0 162.61 -359.41 0.01 0 -1563.23 359.41 0 0 602.49z"/>
</symbol>
<symbol id="b" viewBox="-1837.3 1002.91 1572.61 1499.87">
 <polygon class="fil0" points="-1837.3,1002.91 -1448.15,1002.91 -1050.71,2109.75 -653.84,1002.91 -264.69,1002.91 -820.31,2502.78 -1281.67,2502.78 "/>
</symbol>
 <g id="Слой_x0020_1">
  <metadata id="CorelCorpID_0Corel-Layer"/>
  <g id="_1888691002800">
   <path class="fil1" d="M17332.25 13491.81l2387.04 -7284.86c82.27,-205.74 -41.2,-535.09 -370.42,-535.09l-14693.2 -0.01 -658.42 -1934.35c-41.2,-164.68 -205.88,-288.15 -370.42,-288.15l-1975.55 0c-246.94,0 -411.62,164.68 -411.62,411.62 0,246.94 164.68,411.62 411.62,411.62l1687.4 0.01 3786.36 11441.64c41.2,164.68 205.74,288.15 370.42,288.15l10166 -0.01c246.94,0 411.62,-164.68 411.62,-411.62 0,-246.94 -164.68,-411.62 -411.62,-411.62l-9877.78 0 -452.68 -1399.4 9589.55 0c205.74,0.14 370.42,-123.33 411.62,-288.01l0.08 0.08zm-1028.99 -6996.64l2469.45 0 -782.04 2387.18 -1687.41 -0.01 0 -2387.17zm-8478.3 6461.47l-740.84 0 -1070.05 -3251.48 1810.89 0 0 3251.48zm0 -4115.5l-2099.03 0 -782.04 -2387.18 2881.07 0 0 2387.18zm3827.64 4115.5l-3004.54 0 0 -3251.48 3004.54 0 0 3251.48zm0 -4115.5l-3004.54 0 0 -2345.97 3004.54 0 0 2345.97zm3827.63 4115.5l-3004.53 0 0 -3251.48 3004.53 0 0 3251.48zm0 -4115.5l-3004.53 0 0 -2345.97 3004.53 0 0 2345.97zm823.1 4115.5l0 -3251.48 1399.4 0 -1070.05 3251.48 -329.35 0z"/>
   <path class="fil1" d="M7166.25 19171.53c0,1193.52 946.57,2140.23 2140.23,2140.23 1193.52,0 2140.23,-946.57 2140.23,-2140.23 0,-1193.52 -946.57,-2140.23 -2140.23,-2140.23 -1193.66,0 -2140.23,987.78 -2140.23,2140.23zm3457.22 0c0,740.83 -576.16,1316.99 -1316.99,1316.99 -740.83,0 -1316.99,-576.16 -1316.99,-1316.99 0,-740.83 576.16,-1316.99 1316.99,-1316.99 740.83,0 1316.99,617.36 1316.99,1316.99z"/>
   <path class="fil1" d="M16303.19 17031.22c-1193.52,0 -2140.23,946.57 -2140.23,2140.23 0,1193.52 946.57,2140.23 2140.23,2140.23 1193.52,0 2140.23,-946.57 2140.23,-2140.23 0,-1152.45 -946.71,-2140.23 -2140.23,-2140.23zm0 3457.23c-740.83,0 -1316.99,-576.16 -1316.99,-1316.99 0,-740.83 576.16,-1316.99 1316.99,-1316.99 740.83,0 1316.99,576.16 1316.99,1316.99 0,740.83 -576.16,1316.99 -1316.99,1316.99z"/>
  </g>
 </g>
</svg>
